<svg width="41" height="40" viewBox="0 0 41 40" fill="none" xmlns="http://www.w3.org/2000/svg">
<path d="M13.9137 4C8.7684 4 4.58301 8.18927 4.58301 13.3359V26.6693C4.58301 31.8146 8.77228 36 13.9189 36H27.2523C32.3976 36 36.583 31.8107 36.583 26.6641V13.3307C36.583 8.1854 32.3937 4 27.2471 4H13.9137ZM29.9163 9.33333C30.6523 9.33333 31.2497 9.93067 31.2497 10.6667C31.2497 11.4027 30.6523 12 29.9163 12C29.1803 12 28.583 11.4027 28.583 10.6667C28.583 9.93067 29.1803 9.33333 29.9163 9.33333ZM20.583 12C24.995 12 28.583 15.588 28.583 20C28.583 24.412 24.995 28 20.583 28C16.171 28 12.583 24.412 12.583 20C12.583 15.588 16.171 12 20.583 12ZM20.583 14.6667C19.1685 14.6667 17.812 15.2286 16.8118 16.2288C15.8116 17.229 15.2497 18.5855 15.2497 20C15.2497 21.4145 15.8116 22.771 16.8118 23.7712C17.812 24.7714 19.1685 25.3333 20.583 25.3333C21.9975 25.3333 23.354 24.7714 24.3542 23.7712C25.3544 22.771 25.9163 21.4145 25.9163 20C25.9163 18.5855 25.3544 17.229 24.3542 16.2288C23.354 15.2286 21.9975 14.6667 20.583 14.6667V14.6667Z" fill="white"/>
</svg>
