<svg width="41" height="40" viewBox="0 0 41 40" fill="none" xmlns="http://www.w3.org/2000/svg">
<path d="M20.583 4C11.747 4 4.58301 11.164 4.58301 20C4.58301 23.0016 5.42613 25.8001 6.86426 28.2005L4.72624 36L12.6924 33.9089C15.0221 35.2334 17.7117 36 20.583 36C29.419 36 36.583 28.836 36.583 20C36.583 11.164 29.419 4 20.583 4ZM15.1064 12.5365C15.3664 12.5365 15.6336 12.5349 15.8643 12.5469C16.1496 12.5535 16.4602 12.5744 16.7575 13.2318C17.1108 14.0131 17.8802 15.9732 17.9788 16.1719C18.0775 16.3705 18.1474 16.6046 18.0101 16.8646C17.8794 17.1313 17.8115 17.2926 17.6195 17.5286C17.4208 17.758 17.2031 18.0428 17.0231 18.2161C16.8244 18.4148 16.6193 18.6326 16.8486 19.0286C17.078 19.4246 17.8744 20.7228 19.0518 21.7708C20.5651 23.1228 21.8419 23.5383 22.2393 23.737C22.6366 23.9356 22.8667 23.9047 23.096 23.638C23.332 23.378 24.0872 22.4859 24.3538 22.0885C24.6138 21.6912 24.8793 21.76 25.2393 21.8906C25.6046 22.0213 27.5529 22.981 27.9502 23.1797C28.3475 23.3784 28.608 23.4767 28.708 23.638C28.8107 23.8047 28.8108 24.5981 28.4814 25.5234C28.1521 26.4474 26.5349 27.341 25.8096 27.4036C25.0776 27.4716 24.3944 27.7327 21.0518 26.4167C17.0198 24.8287 14.477 20.699 14.2783 20.4323C14.0797 20.1723 12.6637 18.2852 12.6637 16.3385C12.6637 14.3852 13.6879 13.4286 14.0465 13.0313C14.4119 12.6339 14.8398 12.5365 15.1064 12.5365Z" fill="white"/>
</svg>
