<svg width="41" height="40" viewBox="0 0 41 40" fill="none" xmlns="http://www.w3.org/2000/svg">
<path d="M20.5 4C11.664 4 4.5 11.164 4.5 20C4.5 23.0016 5.34312 25.8001 6.78125 28.2005L4.64323 36L12.6094 33.9089C14.9391 35.2334 17.6287 36 20.5 36C29.336 36 36.5 28.836 36.5 20C36.5 11.164 29.336 4 20.5 4ZM15.0234 12.5365C15.2834 12.5365 15.5506 12.5349 15.7813 12.5469C16.0666 12.5535 16.3771 12.5744 16.6745 13.2318C17.0278 14.0131 17.7972 15.9732 17.8958 16.1719C17.9945 16.3705 18.0644 16.6046 17.9271 16.8646C17.7964 17.1313 17.7285 17.2926 17.5365 17.5286C17.3378 17.758 17.1201 18.0428 16.9401 18.2161C16.7414 18.4148 16.5363 18.6326 16.7656 19.0286C16.995 19.4246 17.7914 20.7228 18.9687 21.7708C20.4821 23.1228 21.7589 23.5383 22.1563 23.737C22.5536 23.9356 22.7837 23.9047 23.013 23.638C23.249 23.378 24.0042 22.4859 24.2708 22.0885C24.5308 21.6912 24.7963 21.76 25.1563 21.8906C25.5216 22.0213 27.4699 22.981 27.8672 23.1797C28.2645 23.3784 28.525 23.4767 28.625 23.638C28.7277 23.8047 28.7278 24.5981 28.3984 25.5234C28.0691 26.4474 26.4519 27.341 25.7266 27.4036C24.9946 27.4716 24.3114 27.7327 20.9687 26.4167C16.9368 24.8287 14.394 20.699 14.1953 20.4323C13.9966 20.1723 12.5807 18.2852 12.5807 16.3385C12.5807 14.3852 13.6049 13.4286 13.9635 13.0313C14.3289 12.6339 14.7568 12.5365 15.0234 12.5365Z" fill="#372018"/>
</svg>
