<svg width="375" height="229" viewBox="0 0 375 229" fill="none" xmlns="http://www.w3.org/2000/svg">
<path d="M228.625 6.5L221.425 13.875L221.125 14.2L216.7 18.725V16.025L226 6.5H228.625ZM217.7 6.5V23H215.7V6.5H217.7ZM221.625 12.6L228.7 23H226.3L219.975 13.725L221.625 12.6ZM238.689 14.925C238.689 13.9917 238.439 13.275 237.939 12.775C237.439 12.2583 236.731 12 235.814 12C234.948 12 234.214 12.1917 233.614 12.575C233.014 12.9417 232.573 13.5417 232.289 14.375L230.664 13.375C230.998 12.4417 231.614 11.6917 232.514 11.125C233.414 10.5417 234.531 10.25 235.864 10.25C236.764 10.25 237.581 10.4083 238.314 10.725C239.048 11.025 239.623 11.4917 240.039 12.125C240.473 12.7417 240.689 13.5417 240.689 14.525V20.575C240.689 21.175 241.006 21.475 241.639 21.475C241.956 21.475 242.264 21.4333 242.564 21.35L242.464 22.925C242.131 23.0917 241.698 23.175 241.164 23.175C240.681 23.175 240.248 23.0833 239.864 22.9C239.481 22.7167 239.181 22.4417 238.964 22.075C238.748 21.6917 238.639 21.2167 238.639 20.65V20.4L239.139 20.475C238.939 21.125 238.598 21.6583 238.114 22.075C237.631 22.475 237.089 22.775 236.489 22.975C235.889 23.1583 235.298 23.25 234.714 23.25C233.981 23.25 233.298 23.125 232.664 22.875C232.031 22.625 231.523 22.25 231.139 21.75C230.773 21.2333 230.589 20.6 230.589 19.85C230.589 18.9167 230.898 18.15 231.514 17.55C232.148 16.9333 233.023 16.5167 234.139 16.3L239.089 15.325V16.975L235.064 17.8C234.248 17.9667 233.639 18.2 233.239 18.5C232.839 18.8 232.639 19.2167 232.639 19.75C232.639 20.2667 232.839 20.6917 233.239 21.025C233.656 21.3417 234.239 21.5 234.989 21.5C235.473 21.5 235.931 21.4417 236.364 21.325C236.814 21.1917 237.214 21 237.564 20.75C237.914 20.4833 238.189 20.1583 238.389 19.775C238.589 19.375 238.689 18.9083 238.689 18.375V14.925ZM248.011 6.95V19.55C248.011 20.1667 248.186 20.625 248.536 20.925C248.886 21.225 249.336 21.375 249.886 21.375C250.37 21.375 250.786 21.2917 251.136 21.125C251.486 20.9583 251.803 20.7333 252.086 20.45L252.786 22.125C252.403 22.475 251.945 22.75 251.411 22.95C250.895 23.15 250.295 23.25 249.611 23.25C248.978 23.25 248.386 23.1417 247.836 22.925C247.286 22.6917 246.845 22.3333 246.511 21.85C246.195 21.35 246.028 20.7 246.011 19.9V7.5L248.011 6.95ZM252.561 10.5V12.225H243.511V10.5H252.561ZM260.71 10.25C261.893 10.25 262.935 10.5083 263.835 11.025C264.752 11.5417 265.468 12.2917 265.985 13.275C266.502 14.2417 266.76 15.4 266.76 16.75C266.76 18.1 266.502 19.2667 265.985 20.25C265.468 21.2167 264.752 21.9583 263.835 22.475C262.935 22.9917 261.893 23.25 260.71 23.25C259.543 23.25 258.502 22.9917 257.585 22.475C256.668 21.9583 255.952 21.2167 255.435 20.25C254.918 19.2667 254.66 18.1 254.66 16.75C254.66 15.4 254.918 14.2417 255.435 13.275C255.952 12.2917 256.668 11.5417 257.585 11.025C258.502 10.5083 259.543 10.25 260.71 10.25ZM260.71 11.975C259.86 11.975 259.135 12.1667 258.535 12.55C257.935 12.9333 257.468 13.4833 257.135 14.2C256.818 14.9 256.66 15.75 256.66 16.75C256.66 17.7333 256.818 18.5833 257.135 19.3C257.468 20.0167 257.935 20.5667 258.535 20.95C259.135 21.3333 259.86 21.525 260.71 21.525C261.56 21.525 262.285 21.3333 262.885 20.95C263.485 20.5667 263.943 20.0167 264.26 19.3C264.593 18.5833 264.76 17.7333 264.76 16.75C264.76 15.75 264.593 14.9 264.26 14.2C263.943 13.4833 263.485 12.9333 262.885 12.55C262.285 12.1667 261.56 11.975 260.71 11.975ZM285.81 10.5H288.035L283.685 23H281.685L278.16 13.05L274.835 23H272.835L268.485 10.5H270.71L273.86 20.675L277.26 10.5H279.26L282.66 20.675L285.81 10.5ZM292.033 8.1C291.583 8.1 291.216 7.96667 290.933 7.7C290.666 7.41667 290.533 7.05 290.533 6.6C290.533 6.15 290.666 5.79167 290.933 5.525C291.216 5.24167 291.583 5.1 292.033 5.1C292.483 5.1 292.841 5.24167 293.108 5.525C293.391 5.79167 293.533 6.15 293.533 6.6C293.533 7.05 293.391 7.41667 293.108 7.7C292.841 7.96667 292.483 8.1 292.033 8.1ZM293.033 10.5V23H291.033V10.5H293.033ZM302.849 10.25C303.715 10.25 304.474 10.3833 305.124 10.65C305.79 10.9167 306.365 11.3 306.849 11.8C307.332 12.3 307.724 12.8917 308.024 13.575L306.124 14.475C305.857 13.675 305.449 13.0667 304.899 12.65C304.365 12.2167 303.665 12 302.799 12C301.965 12 301.249 12.1917 300.649 12.575C300.049 12.9417 299.59 13.4833 299.274 14.2C298.957 14.9 298.799 15.75 298.799 16.75C298.799 17.7333 298.957 18.5833 299.274 19.3C299.59 20.0167 300.049 20.5667 300.649 20.95C301.249 21.3167 301.965 21.5 302.799 21.5C303.449 21.5 304.007 21.4 304.474 21.2C304.957 21 305.349 20.7083 305.649 20.325C305.965 19.9417 306.182 19.475 306.299 18.925L308.149 19.575C307.865 20.3417 307.474 21 306.974 21.55C306.49 22.1 305.899 22.525 305.199 22.825C304.515 23.1083 303.732 23.25 302.849 23.25C301.682 23.25 300.64 22.9917 299.724 22.475C298.807 21.9583 298.09 21.2167 297.574 20.25C297.057 19.2667 296.799 18.1 296.799 16.75C296.799 15.4 297.057 14.2417 297.574 13.275C298.09 12.2917 298.807 11.5417 299.724 11.025C300.64 10.5083 301.682 10.25 302.849 10.25ZM316.888 23.25C315.705 23.25 314.646 22.9917 313.713 22.475C312.796 21.9583 312.08 21.2167 311.563 20.25C311.046 19.2667 310.788 18.1 310.788 16.75C310.788 15.4 311.046 14.2417 311.563 13.275C312.08 12.2917 312.788 11.5417 313.688 11.025C314.588 10.5083 315.613 10.25 316.763 10.25C317.93 10.25 318.921 10.5 319.738 11C320.571 11.5 321.205 12.1833 321.638 13.05C322.071 13.9 322.288 14.8583 322.288 15.925C322.288 16.2083 322.28 16.4667 322.263 16.7C322.246 16.9333 322.221 17.1417 322.188 17.325H312.088V15.55H321.313L320.288 15.75C320.288 14.55 319.955 13.625 319.288 12.975C318.638 12.325 317.78 12 316.713 12C315.896 12 315.188 12.1917 314.588 12.575C314.005 12.9417 313.546 13.4833 313.213 14.2C312.896 14.9 312.738 15.75 312.738 16.75C312.738 17.7333 312.905 18.5833 313.238 19.3C313.571 20.0167 314.038 20.5667 314.638 20.95C315.255 21.3167 315.988 21.5 316.838 21.5C317.755 21.5 318.496 21.325 319.063 20.975C319.646 20.625 320.113 20.15 320.463 19.55L322.038 20.475C321.721 21.0417 321.313 21.5333 320.813 21.95C320.33 22.3667 319.755 22.6917 319.088 22.925C318.438 23.1417 317.705 23.25 316.888 23.25Z" fill="#FFE8EB"/>
<path d="M332.084 17.048L332.42 17.396C331.908 17.844 331.496 18.332 331.184 18.86C330.872 19.388 330.644 19.964 330.5 20.588C330.364 21.204 330.296 21.876 330.296 22.604C330.296 23.332 330.364 24.008 330.5 24.632C330.644 25.248 330.872 25.82 331.184 26.348C331.496 26.876 331.908 27.364 332.42 27.812L332.084 28.16C331.276 27.472 330.672 26.668 330.272 25.748C329.88 24.828 329.684 23.78 329.684 22.604C329.684 21.428 329.88 20.38 330.272 19.46C330.672 18.54 331.276 17.736 332.084 17.048ZM336.38 18.08C336.932 18.08 337.408 18.176 337.808 18.368C338.208 18.552 338.516 18.816 338.732 19.16C338.956 19.504 339.068 19.916 339.068 20.396C339.068 20.884 338.956 21.3 338.732 21.644C338.516 21.988 338.208 22.256 337.808 22.448C337.408 22.632 336.932 22.724 336.38 22.724H334.352V26H333.752V18.08H336.38ZM336.308 22.16C337.004 22.16 337.532 22.008 337.892 21.704C338.252 21.392 338.432 20.956 338.432 20.396C338.432 19.836 338.252 19.404 337.892 19.1C337.532 18.788 337.004 18.632 336.308 18.632H334.352V22.16H336.308ZM342.946 19.88C343.506 19.88 343.998 20.004 344.422 20.252C344.854 20.5 345.19 20.86 345.43 21.332C345.678 21.796 345.802 22.352 345.802 23C345.802 23.648 345.678 24.208 345.43 24.68C345.19 25.144 344.854 25.5 344.422 25.748C343.998 25.996 343.506 26.12 342.946 26.12C342.386 26.12 341.89 25.996 341.458 25.748C341.034 25.5 340.698 25.144 340.45 24.68C340.21 24.208 340.09 23.648 340.09 23C340.09 22.352 340.21 21.796 340.45 21.332C340.698 20.86 341.034 20.5 341.458 20.252C341.89 20.004 342.386 19.88 342.946 19.88ZM342.946 20.396C342.49 20.396 342.094 20.5 341.758 20.708C341.422 20.916 341.158 21.216 340.966 21.608C340.782 21.992 340.69 22.456 340.69 23C340.69 23.536 340.782 24 340.966 24.392C341.158 24.784 341.422 25.084 341.758 25.292C342.094 25.5 342.49 25.604 342.946 25.604C343.402 25.604 343.798 25.5 344.134 25.292C344.47 25.084 344.73 24.784 344.914 24.392C345.106 24 345.202 23.536 345.202 23C345.202 22.456 345.106 21.992 344.914 21.608C344.73 21.216 344.47 20.916 344.134 20.708C343.798 20.5 343.402 20.396 342.946 20.396ZM348.069 17.24V24.584C348.069 24.952 348.133 25.212 348.261 25.364C348.389 25.516 348.589 25.592 348.861 25.592C349.029 25.592 349.161 25.58 349.257 25.556C349.361 25.532 349.481 25.492 349.617 25.436L349.533 25.964C349.429 26.012 349.309 26.048 349.173 26.072C349.045 26.104 348.901 26.12 348.741 26.12C348.317 26.12 347.997 26 347.781 25.76C347.573 25.512 347.469 25.128 347.469 24.608V17.24H348.069ZM354.482 22.052C354.482 21.532 354.342 21.128 354.062 20.84C353.782 20.552 353.382 20.408 352.862 20.408C352.406 20.408 352.014 20.508 351.686 20.708C351.358 20.9 351.114 21.224 350.954 21.68L350.462 21.368C350.638 20.896 350.93 20.532 351.338 20.276C351.754 20.012 352.266 19.88 352.874 19.88C353.314 19.88 353.698 19.96 354.026 20.12C354.362 20.272 354.622 20.5 354.806 20.804C354.99 21.108 355.082 21.488 355.082 21.944V24.944C355.082 25.368 355.274 25.58 355.658 25.58C355.826 25.58 355.97 25.552 356.09 25.496L356.054 25.976C355.918 26.048 355.742 26.084 355.526 26.084C355.342 26.084 355.17 26.048 355.01 25.976C354.85 25.904 354.718 25.784 354.614 25.616C354.518 25.448 354.47 25.22 354.47 24.932V24.608L354.638 24.596C354.566 24.94 354.406 25.228 354.158 25.46C353.918 25.684 353.638 25.852 353.318 25.964C352.998 26.068 352.678 26.12 352.358 26.12C351.982 26.12 351.646 26.06 351.35 25.94C351.054 25.82 350.822 25.648 350.654 25.424C350.486 25.192 350.402 24.908 350.402 24.572C350.402 24.124 350.55 23.764 350.846 23.492C351.15 23.212 351.574 23.02 352.118 22.916L354.602 22.424V22.928L352.418 23.36C351.946 23.456 351.594 23.596 351.362 23.78C351.13 23.964 351.014 24.216 351.014 24.536C351.014 24.864 351.138 25.124 351.386 25.316C351.634 25.5 351.986 25.592 352.442 25.592C352.674 25.592 352.91 25.56 353.15 25.496C353.39 25.432 353.61 25.332 353.81 25.196C354.018 25.052 354.182 24.876 354.302 24.668C354.422 24.452 354.482 24.192 354.482 23.888V22.052ZM357.326 26V20H357.866L357.914 21.5L357.818 21.416C357.93 21.088 358.098 20.812 358.322 20.588C358.546 20.356 358.814 20.18 359.126 20.06C359.438 19.94 359.774 19.88 360.134 19.88C360.582 19.88 360.978 19.964 361.322 20.132C361.666 20.3 361.934 20.548 362.126 20.876C362.326 21.204 362.426 21.616 362.426 22.112V26H361.826V22.304C361.826 21.648 361.662 21.168 361.334 20.864C361.014 20.56 360.594 20.408 360.074 20.408C359.698 20.408 359.346 20.496 359.018 20.672C358.698 20.84 358.434 21.088 358.226 21.416C358.026 21.744 357.926 22.144 357.926 22.616V26H357.326ZM366.838 26.12C366.318 26.12 365.85 25.996 365.434 25.748C365.018 25.5 364.69 25.144 364.45 24.68C364.218 24.208 364.102 23.648 364.102 23C364.102 22.336 364.226 21.772 364.474 21.308C364.722 20.844 365.058 20.492 365.482 20.252C365.906 20.004 366.374 19.88 366.886 19.88C367.446 19.88 367.922 20.028 368.314 20.324C368.714 20.62 368.982 21.032 369.118 21.56L369.046 21.608V17.24H369.646V26H369.106L369.07 24.332L369.142 24.308C369.07 24.692 368.922 25.02 368.698 25.292C368.482 25.564 368.21 25.772 367.882 25.916C367.562 26.052 367.214 26.12 366.838 26.12ZM366.91 25.592C367.334 25.592 367.706 25.488 368.026 25.28C368.346 25.064 368.594 24.756 368.77 24.356C368.954 23.956 369.046 23.488 369.046 22.952C369.046 22.424 368.954 21.972 368.77 21.596C368.594 21.212 368.346 20.92 368.026 20.72C367.714 20.512 367.35 20.408 366.934 20.408C366.246 20.408 365.702 20.64 365.302 21.104C364.902 21.568 364.702 22.2 364.702 23C364.702 23.8 364.898 24.432 365.29 24.896C365.69 25.36 366.23 25.592 366.91 25.592ZM371.295 28.16L370.959 27.812C371.463 27.364 371.871 26.876 372.183 26.348C372.495 25.82 372.723 25.248 372.867 24.632C373.011 24.008 373.083 23.332 373.083 22.604C373.083 21.876 373.011 21.204 372.867 20.588C372.723 19.964 372.495 19.388 372.183 18.86C371.871 18.332 371.463 17.844 370.959 17.396L371.295 17.048C372.095 17.736 372.691 18.54 373.083 19.46C373.483 20.38 373.683 21.428 373.683 22.604C373.683 23.78 373.483 24.828 373.083 25.748C372.691 26.668 372.095 27.472 371.295 28.16Z" fill="#FFE8EB"/>
<path d="M74 61.25C75.45 61.25 76.7 61.55 77.75 62.15C78.8 62.7333 79.675 63.6 80.375 64.75L78.7 66.05C78.0833 64.9833 77.3833 64.2333 76.6 63.8C75.8333 63.35 74.9 63.125 73.8 63.125C72.9167 63.125 72.1833 63.25 71.6 63.5C71.0333 63.75 70.6167 64.0833 70.35 64.5C70.0833 64.9 69.95 65.3583 69.95 65.875C69.95 66.4583 70.1333 66.975 70.5 67.425C70.8667 67.8583 71.6 68.2 72.7 68.45L76.275 69.25C77.8583 69.6 78.9583 70.1333 79.575 70.85C80.2083 71.55 80.525 72.425 80.525 73.475C80.525 74.4083 80.2583 75.2417 79.725 75.975C79.2083 76.6917 78.475 77.25 77.525 77.65C76.575 78.05 75.4583 78.25 74.175 78.25C72.975 78.25 71.9167 78.0917 71 77.775C70.1 77.4417 69.325 77 68.675 76.45C68.025 75.9 67.4917 75.2833 67.075 74.6L68.825 73.175C69.1417 73.8083 69.55 74.3667 70.05 74.85C70.55 75.3333 71.15 75.7083 71.85 75.975C72.5667 76.2417 73.3833 76.375 74.3 76.375C75.15 76.375 75.8833 76.275 76.5 76.075C77.1333 75.8583 77.6167 75.55 77.95 75.15C78.2833 74.7333 78.45 74.2333 78.45 73.65C78.45 73.1167 78.275 72.6417 77.925 72.225C77.575 71.7917 76.9167 71.4667 75.95 71.25L72.075 70.375C71.0583 70.1417 70.2333 69.825 69.6 69.425C68.9833 69.0083 68.5333 68.525 68.25 67.975C67.9833 67.4083 67.85 66.8 67.85 66.15C67.85 65.2667 68.0917 64.4583 68.575 63.725C69.075 62.975 69.7833 62.375 70.7 61.925C71.6333 61.475 72.7333 61.25 74 61.25ZM87.2906 61.95V74.55C87.2906 75.1667 87.4656 75.625 87.8156 75.925C88.1656 76.225 88.6156 76.375 89.1656 76.375C89.649 76.375 90.0656 76.2917 90.4156 76.125C90.7656 75.9583 91.0823 75.7333 91.3656 75.45L92.0656 77.125C91.6823 77.475 91.224 77.75 90.6906 77.95C90.174 78.15 89.574 78.25 88.8906 78.25C88.2573 78.25 87.6656 78.1417 87.1156 77.925C86.5656 77.6917 86.124 77.3333 85.7906 76.85C85.474 76.35 85.3073 75.7 85.2906 74.9V62.5L87.2906 61.95ZM91.8406 65.5V67.225H82.7906V65.5H91.8406ZM99.3393 78.25C98.5393 78.25 97.7809 78.1 97.0643 77.8C96.3643 77.5 95.7893 77.0167 95.3393 76.35C94.9059 75.6667 94.6893 74.7833 94.6893 73.7V65.5H96.6893V73.175C96.6893 74.4417 96.9643 75.3167 97.5143 75.8C98.0643 76.2667 98.8393 76.5 99.8393 76.5C100.306 76.5 100.764 76.425 101.214 76.275C101.664 76.1083 102.064 75.8583 102.414 75.525C102.781 75.175 103.064 74.7333 103.264 74.2C103.481 73.6667 103.589 73.0333 103.589 72.3V65.5H105.589V78H103.839L103.714 76.1C103.281 76.85 102.689 77.4 101.939 77.75C101.206 78.0833 100.339 78.25 99.3393 78.25ZM113.194 61.95V74.55C113.194 75.1667 113.369 75.625 113.719 75.925C114.069 76.225 114.519 76.375 115.069 76.375C115.552 76.375 115.969 76.2917 116.319 76.125C116.669 75.9583 116.986 75.7333 117.269 75.45L117.969 77.125C117.586 77.475 117.127 77.75 116.594 77.95C116.077 78.15 115.477 78.25 114.794 78.25C114.161 78.25 113.569 78.1417 113.019 77.925C112.469 77.6917 112.027 77.3333 111.694 76.85C111.377 76.35 111.211 75.7 111.194 74.9V62.5L113.194 61.95ZM117.744 65.5V67.225H108.694V65.5H117.744ZM122.056 61.95V74.55C122.056 75.1667 122.231 75.625 122.581 75.925C122.931 76.225 123.381 76.375 123.931 76.375C124.415 76.375 124.831 76.2917 125.181 76.125C125.531 75.9583 125.848 75.7333 126.131 75.45L126.831 77.125C126.448 77.475 125.99 77.75 125.456 77.95C124.94 78.15 124.34 78.25 123.656 78.25C123.023 78.25 122.431 78.1417 121.881 77.925C121.331 77.6917 120.89 77.3333 120.556 76.85C120.24 76.35 120.073 75.7 120.056 74.9V62.5L122.056 61.95ZM126.606 65.5V67.225H117.556V65.5H126.606ZM140.105 63.2L140.555 64.975C140.538 64.975 140.513 64.975 140.48 64.975C140.447 64.975 140.413 64.975 140.38 64.975C139.563 64.975 138.93 65.1417 138.48 65.475C138.047 65.7917 137.83 66.3083 137.83 67.025L136.605 66.4C136.605 65.75 136.755 65.1833 137.055 64.7C137.355 64.2167 137.763 63.85 138.28 63.6C138.797 63.3333 139.363 63.2 139.98 63.2C139.997 63.2 140.013 63.2 140.03 63.2C140.063 63.2 140.088 63.2 140.105 63.2ZM136.305 76.4C137.488 76.4 138.413 76.675 139.08 77.225C139.747 77.7583 140.08 78.475 140.08 79.375C140.08 80.1917 139.805 80.9 139.255 81.5C138.722 82.1 137.997 82.5583 137.08 82.875C136.18 83.2083 135.163 83.375 134.03 83.375C132.063 83.375 130.588 83.0417 129.605 82.375C128.638 81.7083 128.155 80.9083 128.155 79.975C128.155 79.3083 128.372 78.7083 128.805 78.175C129.255 77.6583 130.005 77.3667 131.055 77.3L130.88 77.675C130.313 77.525 129.83 77.275 129.43 76.925C129.047 76.5583 128.855 76.0333 128.855 75.35C128.855 74.6667 129.105 74.0833 129.605 73.6C130.122 73.1 130.88 72.7917 131.88 72.675L133.205 73.35H132.955C132.138 73.4333 131.555 73.6417 131.205 73.975C130.872 74.2917 130.705 74.6417 130.705 75.025C130.705 75.4917 130.872 75.8417 131.205 76.075C131.555 76.2917 132.038 76.4 132.655 76.4H136.305ZM134.005 81.7C134.972 81.7 135.763 81.6 136.38 81.4C137.013 81.2 137.48 80.9417 137.78 80.625C138.08 80.3083 138.23 79.9667 138.23 79.6C138.23 79.15 138.047 78.7917 137.68 78.525C137.33 78.2583 136.688 78.125 135.755 78.125H131.905C131.372 78.125 130.922 78.2583 130.555 78.525C130.188 78.8083 130.005 79.1917 130.005 79.675C130.005 80.2917 130.355 80.7833 131.055 81.15C131.772 81.5167 132.755 81.7 134.005 81.7ZM133.83 65.25C134.83 65.25 135.713 65.4333 136.48 65.8C137.263 66.15 137.872 66.6417 138.305 67.275C138.738 67.9083 138.955 68.6417 138.955 69.475C138.955 70.2917 138.738 71.025 138.305 71.675C137.872 72.3083 137.263 72.8083 136.48 73.175C135.713 73.525 134.83 73.7 133.83 73.7C132.18 73.7 130.913 73.3083 130.03 72.525C129.147 71.725 128.705 70.7083 128.705 69.475C128.705 68.6417 128.922 67.9083 129.355 67.275C129.805 66.6417 130.413 66.15 131.18 65.8C131.947 65.4333 132.83 65.25 133.83 65.25ZM133.83 66.875C132.963 66.875 132.238 67.1167 131.655 67.6C131.072 68.0667 130.78 68.6917 130.78 69.475C130.78 70.2417 131.072 70.8667 131.655 71.35C132.238 71.8333 132.963 72.075 133.83 72.075C134.697 72.075 135.422 71.8333 136.005 71.35C136.588 70.8667 136.88 70.2417 136.88 69.475C136.88 68.6917 136.588 68.0667 136.005 67.6C135.422 67.1167 134.697 66.875 133.83 66.875ZM150.186 69.925C150.186 68.9917 149.936 68.275 149.436 67.775C148.936 67.2583 148.227 67 147.311 67C146.444 67 145.711 67.1917 145.111 67.575C144.511 67.9417 144.069 68.5417 143.786 69.375L142.161 68.375C142.494 67.4417 143.111 66.6917 144.011 66.125C144.911 65.5417 146.027 65.25 147.361 65.25C148.261 65.25 149.077 65.4083 149.811 65.725C150.544 66.025 151.119 66.4917 151.536 67.125C151.969 67.7417 152.186 68.5417 152.186 69.525V75.575C152.186 76.175 152.502 76.475 153.136 76.475C153.452 76.475 153.761 76.4333 154.061 76.35L153.961 77.925C153.627 78.0917 153.194 78.175 152.661 78.175C152.177 78.175 151.744 78.0833 151.361 77.9C150.977 77.7167 150.677 77.4417 150.461 77.075C150.244 76.6917 150.136 76.2167 150.136 75.65V75.4L150.636 75.475C150.436 76.125 150.094 76.6583 149.611 77.075C149.127 77.475 148.586 77.775 147.986 77.975C147.386 78.1583 146.794 78.25 146.211 78.25C145.477 78.25 144.794 78.125 144.161 77.875C143.527 77.625 143.019 77.25 142.636 76.75C142.269 76.2333 142.086 75.6 142.086 74.85C142.086 73.9167 142.394 73.15 143.011 72.55C143.644 71.9333 144.519 71.5167 145.636 71.3L150.586 70.325V71.975L146.561 72.8C145.744 72.9667 145.136 73.2 144.736 73.5C144.336 73.8 144.136 74.2167 144.136 74.75C144.136 75.2667 144.336 75.6917 144.736 76.025C145.152 76.3417 145.736 76.5 146.486 76.5C146.969 76.5 147.427 76.4417 147.861 76.325C148.311 76.1917 148.711 76 149.061 75.75C149.411 75.4833 149.686 75.1583 149.886 74.775C150.086 74.375 150.186 73.9083 150.186 73.375V69.925ZM157.046 78V65.5H158.671L158.946 67.55C159.296 66.7833 159.804 66.2083 160.471 65.825C161.154 65.4417 161.979 65.25 162.946 65.25C163.162 65.25 163.396 65.2667 163.646 65.3C163.912 65.3333 164.137 65.4 164.321 65.5L163.971 67.325C163.787 67.2583 163.587 67.2083 163.371 67.175C163.154 67.1417 162.846 67.125 162.446 67.125C161.929 67.125 161.404 67.275 160.871 67.575C160.354 67.875 159.921 68.3333 159.571 68.95C159.221 69.55 159.046 70.3167 159.046 71.25V78H157.046ZM169.444 61.95V74.55C169.444 75.1667 169.619 75.625 169.969 75.925C170.319 76.225 170.769 76.375 171.319 76.375C171.802 76.375 172.219 76.2917 172.569 76.125C172.919 75.9583 173.236 75.7333 173.519 75.45L174.219 77.125C173.836 77.475 173.377 77.75 172.844 77.95C172.327 78.15 171.727 78.25 171.044 78.25C170.411 78.25 169.819 78.1417 169.269 77.925C168.719 77.6917 168.277 77.3333 167.944 76.85C167.627 76.35 167.461 75.7 167.444 74.9V62.5L169.444 61.95ZM173.994 65.5V67.225H164.944V65.5H173.994Z" fill="#FFE8EB"/>
<path d="M183.084 72.048L183.42 72.396C182.908 72.844 182.496 73.332 182.184 73.86C181.872 74.388 181.644 74.964 181.5 75.588C181.364 76.204 181.296 76.876 181.296 77.604C181.296 78.332 181.364 79.008 181.5 79.632C181.644 80.248 181.872 80.82 182.184 81.348C182.496 81.876 182.908 82.364 183.42 82.812L183.084 83.16C182.276 82.472 181.672 81.668 181.272 80.748C180.88 79.828 180.684 78.78 180.684 77.604C180.684 76.428 180.88 75.38 181.272 74.46C181.672 73.54 182.276 72.736 183.084 72.048ZM187.591 81.12C186.847 81.12 186.203 80.956 185.659 80.628C185.115 80.292 184.695 79.82 184.399 79.212C184.103 78.604 183.955 77.88 183.955 77.04C183.955 76.2 184.107 75.476 184.411 74.868C184.723 74.26 185.151 73.792 185.695 73.464C186.247 73.128 186.883 72.96 187.603 72.96C188.411 72.96 189.063 73.12 189.559 73.44C190.063 73.76 190.443 74.248 190.699 74.904L190.147 75.192C189.963 74.64 189.659 74.224 189.235 73.944C188.811 73.656 188.267 73.512 187.603 73.512C187.003 73.512 186.475 73.656 186.019 73.944C185.571 74.224 185.219 74.628 184.963 75.156C184.707 75.684 184.579 76.312 184.579 77.04C184.579 77.768 184.699 78.396 184.939 78.924C185.179 79.452 185.523 79.86 185.971 80.148C186.427 80.428 186.975 80.568 187.615 80.568C188.055 80.568 188.435 80.5 188.755 80.364C189.083 80.22 189.351 80.036 189.559 79.812C189.775 79.58 189.935 79.32 190.039 79.032C190.143 78.736 190.195 78.436 190.195 78.132V77.688H187.507V77.124H190.759V81H190.267L190.243 79.284L190.351 79.308C190.159 79.868 189.827 80.312 189.355 80.64C188.891 80.96 188.303 81.12 187.591 81.12ZM195.141 81.12C194.589 81.12 194.097 80.996 193.665 80.748C193.233 80.5 192.893 80.144 192.645 79.68C192.405 79.208 192.285 78.648 192.285 78C192.285 77.352 192.405 76.796 192.645 76.332C192.893 75.86 193.225 75.5 193.641 75.252C194.057 75.004 194.533 74.88 195.069 74.88C195.613 74.88 196.077 75 196.461 75.24C196.845 75.48 197.141 75.816 197.349 76.248C197.557 76.672 197.661 77.164 197.661 77.724C197.661 77.796 197.657 77.868 197.649 77.94C197.649 78.004 197.645 78.064 197.637 78.12H192.657V77.58H197.373L197.073 77.664C197.065 76.976 196.881 76.428 196.521 76.02C196.169 75.612 195.681 75.408 195.057 75.408C194.625 75.408 194.245 75.512 193.917 75.72C193.589 75.92 193.333 76.216 193.149 76.608C192.965 76.992 192.873 77.456 192.873 78C192.873 78.536 192.965 79 193.149 79.392C193.341 79.784 193.605 80.084 193.941 80.292C194.285 80.492 194.681 80.592 195.129 80.592C195.593 80.592 195.989 80.492 196.317 80.292C196.653 80.092 196.913 79.816 197.097 79.464L197.577 79.74C197.433 80.028 197.241 80.276 197.001 80.484C196.761 80.684 196.485 80.84 196.173 80.952C195.861 81.064 195.517 81.12 195.141 81.12ZM199.373 81V75H199.877L199.949 76.26C200.101 75.836 200.345 75.5 200.681 75.252C201.017 75.004 201.421 74.88 201.893 74.88C202.053 74.88 202.197 74.896 202.325 74.928C202.453 74.96 202.557 75.012 202.637 75.084L202.505 75.612C202.417 75.556 202.321 75.512 202.217 75.48C202.113 75.448 201.957 75.432 201.749 75.432C201.445 75.432 201.157 75.528 200.885 75.72C200.613 75.904 200.393 76.164 200.225 76.5C200.057 76.828 199.973 77.208 199.973 77.64V81H199.373ZM203.908 81V75H204.448L204.484 76.248C204.66 75.816 204.944 75.48 205.336 75.24C205.736 75 206.18 74.88 206.668 74.88C207.188 74.88 207.636 75.004 208.012 75.252C208.396 75.5 208.66 75.864 208.804 76.344C208.908 76.04 209.076 75.78 209.308 75.564C209.54 75.34 209.812 75.168 210.124 75.048C210.436 74.928 210.76 74.868 211.096 74.868C211.512 74.868 211.888 74.952 212.224 75.12C212.568 75.28 212.84 75.528 213.04 75.864C213.248 76.192 213.352 76.604 213.352 77.1V80.988H212.752V77.16C212.752 76.568 212.592 76.128 212.272 75.84C211.96 75.544 211.544 75.396 211.024 75.396C210.648 75.396 210.3 75.488 209.98 75.672C209.66 75.848 209.404 76.1 209.212 76.428C209.028 76.748 208.936 77.12 208.936 77.544V81H208.336V77.172C208.336 76.58 208.176 76.14 207.856 75.852C207.536 75.556 207.12 75.408 206.608 75.408C206.248 75.408 205.908 75.496 205.588 75.672C205.268 75.848 205.008 76.1 204.808 76.428C204.608 76.756 204.508 77.148 204.508 77.604V81H203.908ZM219.099 77.052C219.099 76.532 218.959 76.128 218.679 75.84C218.399 75.552 217.999 75.408 217.479 75.408C217.023 75.408 216.631 75.508 216.303 75.708C215.975 75.9 215.731 76.224 215.571 76.68L215.079 76.368C215.255 75.896 215.547 75.532 215.955 75.276C216.371 75.012 216.883 74.88 217.491 74.88C217.931 74.88 218.315 74.96 218.643 75.12C218.979 75.272 219.239 75.5 219.423 75.804C219.607 76.108 219.699 76.488 219.699 76.944V79.944C219.699 80.368 219.891 80.58 220.275 80.58C220.443 80.58 220.587 80.552 220.707 80.496L220.671 80.976C220.535 81.048 220.359 81.084 220.143 81.084C219.959 81.084 219.787 81.048 219.627 80.976C219.467 80.904 219.335 80.784 219.231 80.616C219.135 80.448 219.087 80.22 219.087 79.932V79.608L219.255 79.596C219.183 79.94 219.023 80.228 218.775 80.46C218.535 80.684 218.255 80.852 217.935 80.964C217.615 81.068 217.295 81.12 216.975 81.12C216.599 81.12 216.263 81.06 215.967 80.94C215.671 80.82 215.439 80.648 215.271 80.424C215.103 80.192 215.019 79.908 215.019 79.572C215.019 79.124 215.167 78.764 215.463 78.492C215.767 78.212 216.191 78.02 216.735 77.916L219.219 77.424V77.928L217.035 78.36C216.563 78.456 216.211 78.596 215.979 78.78C215.747 78.964 215.631 79.216 215.631 79.536C215.631 79.864 215.755 80.124 216.003 80.316C216.251 80.5 216.603 80.592 217.059 80.592C217.291 80.592 217.527 80.56 217.767 80.496C218.007 80.432 218.227 80.332 218.427 80.196C218.635 80.052 218.799 79.876 218.919 79.668C219.039 79.452 219.099 79.192 219.099 78.888V77.052ZM221.943 81V75H222.483L222.531 76.5L222.435 76.416C222.547 76.088 222.715 75.812 222.939 75.588C223.163 75.356 223.431 75.18 223.743 75.06C224.055 74.94 224.391 74.88 224.751 74.88C225.199 74.88 225.595 74.964 225.939 75.132C226.283 75.3 226.551 75.548 226.743 75.876C226.943 76.204 227.043 76.616 227.043 77.112V81H226.443V77.304C226.443 76.648 226.279 76.168 225.951 75.864C225.631 75.56 225.211 75.408 224.691 75.408C224.315 75.408 223.963 75.496 223.635 75.672C223.315 75.84 223.051 76.088 222.843 76.416C222.643 76.744 222.543 77.144 222.543 77.616V81H221.943ZM233.691 75L230.787 82.104C230.643 82.472 230.487 82.764 230.319 82.98C230.151 83.196 229.963 83.348 229.755 83.436C229.547 83.532 229.307 83.58 229.035 83.58C228.795 83.58 228.575 83.544 228.375 83.472C228.175 83.4 228.011 83.3 227.883 83.172L228.075 82.656C228.195 82.8 228.339 82.9 228.507 82.956C228.675 83.02 228.847 83.052 229.023 83.052C229.279 83.052 229.507 82.976 229.707 82.824C229.907 82.68 230.095 82.392 230.271 81.96L230.667 81L230.031 79.512L228.135 75H228.819L230.655 79.548L230.955 80.352L231.279 79.488L233.043 75H233.691ZM234.002 83.16L233.666 82.812C234.17 82.364 234.578 81.876 234.89 81.348C235.202 80.82 235.43 80.248 235.574 79.632C235.718 79.008 235.79 78.332 235.79 77.604C235.79 76.876 235.718 76.204 235.574 75.588C235.43 74.964 235.202 74.388 234.89 73.86C234.578 73.332 234.17 72.844 233.666 72.396L234.002 72.048C234.802 72.736 235.398 73.54 235.79 74.46C236.19 75.38 236.39 76.428 236.39 77.604C236.39 78.78 236.19 79.828 235.79 80.748C235.398 81.668 234.802 82.472 234.002 83.16Z" fill="#FFE8EB"/>
<path d="M4.7 153.125H14.15V155H2.7V138.5H4.7V153.125ZM25.2953 142.5L19.4203 157.1C19.1036 157.917 18.7536 158.558 18.3703 159.025C18.0036 159.508 17.587 159.85 17.1203 160.05C16.6703 160.267 16.1453 160.375 15.5453 160.375C14.9786 160.375 14.4536 160.292 13.9703 160.125C13.5036 159.975 13.087 159.767 12.7203 159.5L13.2703 157.75C13.6036 158.05 13.9536 158.267 14.3203 158.4C14.7036 158.55 15.0786 158.625 15.4453 158.625C15.8786 158.625 16.287 158.492 16.6703 158.225C17.0536 157.958 17.4036 157.417 17.7203 156.6L18.3703 154.975L17.1203 152L13.1453 142.5H15.4203L18.5453 150.65L19.3203 152.875L20.2203 150.4L23.1453 142.5H25.2953ZM33.0859 142.25C34.2693 142.25 35.3109 142.508 36.2109 143.025C37.1276 143.542 37.8443 144.292 38.3609 145.275C38.8776 146.242 39.1359 147.4 39.1359 148.75C39.1359 150.1 38.8776 151.267 38.3609 152.25C37.8443 153.217 37.1276 153.958 36.2109 154.475C35.3109 154.992 34.2693 155.25 33.0859 155.25C31.9193 155.25 30.8776 154.992 29.9609 154.475C29.0443 153.958 28.3276 153.217 27.8109 152.25C27.2943 151.267 27.0359 150.1 27.0359 148.75C27.0359 147.4 27.2943 146.242 27.8109 145.275C28.3276 144.292 29.0443 143.542 29.9609 143.025C30.8776 142.508 31.9193 142.25 33.0859 142.25ZM33.0859 143.975C32.2359 143.975 31.5109 144.167 30.9109 144.55C30.3109 144.933 29.8443 145.483 29.5109 146.2C29.1943 146.9 29.0359 147.75 29.0359 148.75C29.0359 149.733 29.1943 150.583 29.5109 151.3C29.8443 152.017 30.3109 152.567 30.9109 152.95C31.5109 153.333 32.2359 153.525 33.0859 153.525C33.9359 153.525 34.6609 153.333 35.2609 152.95C35.8609 152.567 36.3193 152.017 36.6359 151.3C36.9693 150.583 37.1359 149.733 37.1359 148.75C37.1359 147.75 36.9693 146.9 36.6359 146.2C36.3193 145.483 35.8609 144.933 35.2609 144.55C34.6609 144.167 33.9359 143.975 33.0859 143.975ZM42.9012 155V142.5H44.6512L44.8262 145.3L44.5012 145.025C44.7678 144.358 45.1262 143.825 45.5762 143.425C46.0262 143.008 46.5428 142.708 47.1262 142.525C47.7262 142.342 48.3428 142.25 48.9762 142.25C49.8762 142.25 50.6928 142.425 51.4262 142.775C52.1595 143.108 52.7428 143.625 53.1762 144.325C53.6262 145.025 53.8512 145.917 53.8512 147V155H51.8512V147.7C51.8512 146.317 51.5512 145.358 50.9512 144.825C50.3678 144.275 49.6428 144 48.7762 144C48.1762 144 47.5762 144.142 46.9762 144.425C46.3762 144.708 45.8762 145.167 45.4762 145.8C45.0928 146.433 44.9012 147.283 44.9012 148.35V155H42.9012Z" fill="#FFE8EB"/>
<path d="M65.084 149.048L65.42 149.396C64.908 149.844 64.496 150.332 64.184 150.86C63.872 151.388 63.644 151.964 63.5 152.588C63.364 153.204 63.296 153.876 63.296 154.604C63.296 155.332 63.364 156.008 63.5 156.632C63.644 157.248 63.872 157.82 64.184 158.348C64.496 158.876 64.908 159.364 65.42 159.812L65.084 160.16C64.276 159.472 63.672 158.668 63.272 157.748C62.88 156.828 62.684 155.78 62.684 154.604C62.684 153.428 62.88 152.38 63.272 151.46C63.672 150.54 64.276 149.736 65.084 149.048ZM72.1519 150.632H67.3519V153.692H71.1559V154.256H67.3519V158H66.7519V150.08H72.1519V150.632ZM73.0993 158V152H73.6033L73.6753 153.26C73.8273 152.836 74.0713 152.5 74.4073 152.252C74.7433 152.004 75.1473 151.88 75.6193 151.88C75.7793 151.88 75.9233 151.896 76.0513 151.928C76.1793 151.96 76.2833 152.012 76.3633 152.084L76.2313 152.612C76.1433 152.556 76.0473 152.512 75.9433 152.48C75.8393 152.448 75.6833 152.432 75.4753 152.432C75.1713 152.432 74.8833 152.528 74.6113 152.72C74.3393 152.904 74.1193 153.164 73.9513 153.5C73.7833 153.828 73.6993 154.208 73.6993 154.64V158H73.0993ZM81.1541 154.052C81.1541 153.532 81.0141 153.128 80.7341 152.84C80.4541 152.552 80.0541 152.408 79.5341 152.408C79.0781 152.408 78.6861 152.508 78.3581 152.708C78.0301 152.9 77.7861 153.224 77.6261 153.68L77.1341 153.368C77.3101 152.896 77.6021 152.532 78.0101 152.276C78.4261 152.012 78.9381 151.88 79.5461 151.88C79.9861 151.88 80.3701 151.96 80.6981 152.12C81.0341 152.272 81.2941 152.5 81.4781 152.804C81.6621 153.108 81.7541 153.488 81.7541 153.944V156.944C81.7541 157.368 81.9461 157.58 82.3301 157.58C82.4981 157.58 82.6421 157.552 82.7621 157.496L82.7261 157.976C82.5901 158.048 82.4141 158.084 82.1981 158.084C82.0141 158.084 81.8421 158.048 81.6821 157.976C81.5221 157.904 81.3901 157.784 81.2861 157.616C81.1901 157.448 81.1421 157.22 81.1421 156.932V156.608L81.3101 156.596C81.2381 156.94 81.0781 157.228 80.8301 157.46C80.5901 157.684 80.3101 157.852 79.9901 157.964C79.6701 158.068 79.3501 158.12 79.0301 158.12C78.6541 158.12 78.3181 158.06 78.0221 157.94C77.7261 157.82 77.4941 157.648 77.3261 157.424C77.1581 157.192 77.0741 156.908 77.0741 156.572C77.0741 156.124 77.2221 155.764 77.5181 155.492C77.8221 155.212 78.2461 155.02 78.7901 154.916L81.2741 154.424V154.928L79.0901 155.36C78.6181 155.456 78.2661 155.596 78.0341 155.78C77.8021 155.964 77.6861 156.216 77.6861 156.536C77.6861 156.864 77.8101 157.124 78.0581 157.316C78.3061 157.5 78.6581 157.592 79.1141 157.592C79.3461 157.592 79.5821 157.56 79.8221 157.496C80.0621 157.432 80.2821 157.332 80.4821 157.196C80.6901 157.052 80.8541 156.876 80.9741 156.668C81.0941 156.452 81.1541 156.192 81.1541 155.888V154.052ZM83.9977 158V152H84.5377L84.5857 153.5L84.4897 153.416C84.6017 153.088 84.7697 152.812 84.9937 152.588C85.2177 152.356 85.4857 152.18 85.7977 152.06C86.1097 151.94 86.4457 151.88 86.8057 151.88C87.2537 151.88 87.6497 151.964 87.9937 152.132C88.3377 152.3 88.6057 152.548 88.7977 152.876C88.9977 153.204 89.0977 153.616 89.0977 154.112V158H88.4977V154.304C88.4977 153.648 88.3337 153.168 88.0057 152.864C87.6857 152.56 87.2657 152.408 86.7457 152.408C86.3697 152.408 86.0177 152.496 85.6897 152.672C85.3697 152.84 85.1057 153.088 84.8977 153.416C84.6977 153.744 84.5977 154.144 84.5977 154.616V158H83.9977ZM93.5936 151.88C94.0016 151.88 94.3656 151.944 94.6856 152.072C95.0056 152.2 95.2776 152.384 95.5016 152.624C95.7256 152.864 95.8976 153.156 96.0176 153.5L95.4536 153.764C95.3256 153.332 95.1016 153 94.7816 152.768C94.4696 152.528 94.0696 152.408 93.5816 152.408C93.1416 152.408 92.7536 152.512 92.4176 152.72C92.0816 152.92 91.8216 153.216 91.6376 153.608C91.4536 153.992 91.3616 154.456 91.3616 155C91.3616 155.536 91.4536 156 91.6376 156.392C91.8216 156.784 92.0776 157.084 92.4056 157.292C92.7336 157.492 93.1216 157.592 93.5696 157.592C93.9056 157.592 94.2096 157.536 94.4816 157.424C94.7616 157.312 94.9896 157.148 95.1656 156.932C95.3496 156.716 95.4696 156.46 95.5256 156.164L96.0776 156.356C95.9736 156.724 95.8016 157.04 95.5616 157.304C95.3296 157.568 95.0456 157.772 94.7096 157.916C94.3736 158.052 93.9976 158.12 93.5816 158.12C93.0376 158.12 92.5496 157.996 92.1176 157.748C91.6936 157.5 91.3616 157.144 91.1216 156.68C90.8816 156.208 90.7616 155.648 90.7616 155C90.7616 154.352 90.8816 153.796 91.1216 153.332C91.3696 152.86 91.7056 152.5 92.1296 152.252C92.5616 152.004 93.0496 151.88 93.5936 151.88ZM100.133 158.12C99.5812 158.12 99.0892 157.996 98.6572 157.748C98.2252 157.5 97.8852 157.144 97.6372 156.68C97.3972 156.208 97.2772 155.648 97.2772 155C97.2772 154.352 97.3972 153.796 97.6372 153.332C97.8852 152.86 98.2172 152.5 98.6332 152.252C99.0492 152.004 99.5252 151.88 100.061 151.88C100.605 151.88 101.069 152 101.453 152.24C101.837 152.48 102.133 152.816 102.341 153.248C102.549 153.672 102.653 154.164 102.653 154.724C102.653 154.796 102.649 154.868 102.641 154.94C102.641 155.004 102.637 155.064 102.629 155.12H97.6492V154.58H102.365L102.065 154.664C102.057 153.976 101.873 153.428 101.513 153.02C101.161 152.612 100.673 152.408 100.049 152.408C99.6172 152.408 99.2372 152.512 98.9092 152.72C98.5812 152.92 98.3252 153.216 98.1412 153.608C97.9572 153.992 97.8652 154.456 97.8652 155C97.8652 155.536 97.9572 156 98.1412 156.392C98.3332 156.784 98.5972 157.084 98.9332 157.292C99.2772 157.492 99.6732 157.592 100.121 157.592C100.585 157.592 100.981 157.492 101.309 157.292C101.645 157.092 101.905 156.816 102.089 156.464L102.569 156.74C102.425 157.028 102.233 157.276 101.993 157.484C101.753 157.684 101.477 157.84 101.165 157.952C100.853 158.064 100.509 158.12 100.133 158.12ZM103.357 160.16L103.021 159.812C103.525 159.364 103.933 158.876 104.245 158.348C104.557 157.82 104.785 157.248 104.929 156.632C105.073 156.008 105.145 155.332 105.145 154.604C105.145 153.876 105.073 153.204 104.929 152.588C104.785 151.964 104.557 151.388 104.245 150.86C103.933 150.332 103.525 149.844 103.021 149.396L103.357 149.048C104.157 149.736 104.753 150.54 105.145 151.46C105.545 152.38 105.745 153.428 105.745 154.604C105.745 155.78 105.545 156.828 105.145 157.748C104.753 158.668 104.157 159.472 103.357 160.16Z" fill="#FFE8EB"/>
<path d="M148.3 190.5V192.375H142.55V207H140.55V192.375H134.8V190.5H148.3ZM153.879 207.25C152.696 207.25 151.637 206.992 150.704 206.475C149.787 205.958 149.071 205.217 148.554 204.25C148.037 203.267 147.779 202.1 147.779 200.75C147.779 199.4 148.037 198.242 148.554 197.275C149.071 196.292 149.779 195.542 150.679 195.025C151.579 194.508 152.604 194.25 153.754 194.25C154.921 194.25 155.912 194.5 156.729 195C157.562 195.5 158.196 196.183 158.629 197.05C159.062 197.9 159.279 198.858 159.279 199.925C159.279 200.208 159.271 200.467 159.254 200.7C159.237 200.933 159.212 201.142 159.179 201.325H149.079V199.55H158.304L157.279 199.75C157.279 198.55 156.946 197.625 156.279 196.975C155.629 196.325 154.771 196 153.704 196C152.887 196 152.179 196.192 151.579 196.575C150.996 196.942 150.537 197.483 150.204 198.2C149.887 198.9 149.729 199.75 149.729 200.75C149.729 201.733 149.896 202.583 150.229 203.3C150.562 204.017 151.029 204.567 151.629 204.95C152.246 205.317 152.979 205.5 153.829 205.5C154.746 205.5 155.487 205.325 156.054 204.975C156.637 204.625 157.104 204.15 157.454 203.55L159.029 204.475C158.712 205.042 158.304 205.533 157.804 205.95C157.321 206.367 156.746 206.692 156.079 206.925C155.429 207.142 154.696 207.25 153.879 207.25ZM163.083 207V194.5H164.708L164.983 196.55C165.333 195.783 165.841 195.208 166.508 194.825C167.191 194.442 168.016 194.25 168.983 194.25C169.199 194.25 169.433 194.267 169.683 194.3C169.949 194.333 170.174 194.4 170.358 194.5L170.008 196.325C169.824 196.258 169.624 196.208 169.408 196.175C169.191 196.142 168.883 196.125 168.483 196.125C167.966 196.125 167.441 196.275 166.908 196.575C166.391 196.875 165.958 197.333 165.608 197.95C165.258 198.55 165.083 199.317 165.083 200.25V207H163.083ZM180.246 198.925C180.246 197.992 179.996 197.275 179.496 196.775C178.996 196.258 178.288 196 177.371 196C176.504 196 175.771 196.192 175.171 196.575C174.571 196.942 174.129 197.542 173.846 198.375L172.221 197.375C172.554 196.442 173.171 195.692 174.071 195.125C174.971 194.542 176.088 194.25 177.421 194.25C178.321 194.25 179.138 194.408 179.871 194.725C180.604 195.025 181.179 195.492 181.596 196.125C182.029 196.742 182.246 197.542 182.246 198.525V204.575C182.246 205.175 182.563 205.475 183.196 205.475C183.513 205.475 183.821 205.433 184.121 205.35L184.021 206.925C183.688 207.092 183.254 207.175 182.721 207.175C182.238 207.175 181.804 207.083 181.421 206.9C181.038 206.717 180.738 206.442 180.521 206.075C180.304 205.692 180.196 205.217 180.196 204.65V204.4L180.696 204.475C180.496 205.125 180.154 205.658 179.671 206.075C179.188 206.475 178.646 206.775 178.046 206.975C177.446 207.158 176.854 207.25 176.271 207.25C175.538 207.25 174.854 207.125 174.221 206.875C173.588 206.625 173.079 206.25 172.696 205.75C172.329 205.233 172.146 204.6 172.146 203.85C172.146 202.917 172.454 202.15 173.071 201.55C173.704 200.933 174.579 200.517 175.696 200.3L180.646 199.325V200.975L176.621 201.8C175.804 201.967 175.196 202.2 174.796 202.5C174.396 202.8 174.196 203.217 174.196 203.75C174.196 204.267 174.396 204.692 174.796 205.025C175.213 205.342 175.796 205.5 176.546 205.5C177.029 205.5 177.488 205.442 177.921 205.325C178.371 205.192 178.771 205 179.121 204.75C179.471 204.483 179.746 204.158 179.946 203.775C180.146 203.375 180.246 202.908 180.246 202.375V198.925ZM187.106 207V194.5H188.856L188.981 196.45C189.431 195.683 190.015 195.125 190.731 194.775C191.465 194.425 192.215 194.25 192.981 194.25C193.865 194.25 194.698 194.45 195.481 194.85C196.265 195.25 196.865 195.867 197.281 196.7C197.548 196.133 197.923 195.675 198.406 195.325C198.89 194.958 199.415 194.692 199.981 194.525C200.565 194.342 201.115 194.25 201.631 194.25C202.431 194.25 203.19 194.417 203.906 194.75C204.64 195.083 205.24 195.6 205.706 196.3C206.173 197 206.406 197.9 206.406 199V207H204.406V199.2C204.406 198.067 204.123 197.25 203.556 196.75C202.99 196.25 202.29 196 201.456 196C200.806 196 200.198 196.158 199.631 196.475C199.065 196.792 198.606 197.258 198.256 197.875C197.923 198.492 197.756 199.25 197.756 200.15V207H195.756V199.2C195.756 198.067 195.473 197.25 194.906 196.75C194.34 196.25 193.64 196 192.806 196C192.256 196 191.69 196.15 191.106 196.45C190.54 196.733 190.065 197.192 189.681 197.825C189.298 198.458 189.106 199.292 189.106 200.325V207H187.106ZM216.109 194.25C217.293 194.25 218.334 194.508 219.234 195.025C220.151 195.542 220.868 196.292 221.384 197.275C221.901 198.242 222.159 199.4 222.159 200.75C222.159 202.1 221.901 203.267 221.384 204.25C220.868 205.217 220.151 205.958 219.234 206.475C218.334 206.992 217.293 207.25 216.109 207.25C214.943 207.25 213.901 206.992 212.984 206.475C212.068 205.958 211.351 205.217 210.834 204.25C210.318 203.267 210.059 202.1 210.059 200.75C210.059 199.4 210.318 198.242 210.834 197.275C211.351 196.292 212.068 195.542 212.984 195.025C213.901 194.508 214.943 194.25 216.109 194.25ZM216.109 195.975C215.259 195.975 214.534 196.167 213.934 196.55C213.334 196.933 212.868 197.483 212.534 198.2C212.218 198.9 212.059 199.75 212.059 200.75C212.059 201.733 212.218 202.583 212.534 203.3C212.868 204.017 213.334 204.567 213.934 204.95C214.534 205.333 215.259 205.525 216.109 205.525C216.959 205.525 217.684 205.333 218.284 204.95C218.884 204.567 219.343 204.017 219.659 203.3C219.993 202.583 220.159 201.733 220.159 200.75C220.159 199.75 219.993 198.9 219.659 198.2C219.343 197.483 218.884 196.933 218.284 196.55C217.684 196.167 216.959 195.975 216.109 195.975Z" fill="#FFE8EB"/>
<path d="M233.084 201.048L233.42 201.396C232.908 201.844 232.496 202.332 232.184 202.86C231.872 203.388 231.644 203.964 231.5 204.588C231.364 205.204 231.296 205.876 231.296 206.604C231.296 207.332 231.364 208.008 231.5 208.632C231.644 209.248 231.872 209.82 232.184 210.348C232.496 210.876 232.908 211.364 233.42 211.812L233.084 212.16C232.276 211.472 231.672 210.668 231.272 209.748C230.88 208.828 230.684 207.78 230.684 206.604C230.684 205.428 230.88 204.38 231.272 203.46C231.672 202.54 232.276 201.736 233.084 201.048ZM235.352 202.08V210H234.752V202.08H235.352ZM238.662 202.332V208.416C238.662 208.792 238.75 209.08 238.926 209.28C239.11 209.472 239.374 209.568 239.718 209.568C239.942 209.568 240.138 209.532 240.306 209.46C240.482 209.38 240.638 209.268 240.774 209.124L241.002 209.616C240.85 209.768 240.658 209.892 240.426 209.988C240.194 210.076 239.934 210.12 239.646 210.12C239.334 210.12 239.058 210.064 238.818 209.952C238.578 209.832 238.39 209.652 238.254 209.412C238.126 209.172 238.062 208.868 238.062 208.5V202.5L238.662 202.332ZM240.906 204V204.516H236.862V204H240.906ZM245.861 206.052C245.861 205.532 245.721 205.128 245.441 204.84C245.161 204.552 244.761 204.408 244.241 204.408C243.785 204.408 243.393 204.508 243.065 204.708C242.737 204.9 242.493 205.224 242.333 205.68L241.841 205.368C242.017 204.896 242.309 204.532 242.717 204.276C243.133 204.012 243.645 203.88 244.253 203.88C244.693 203.88 245.077 203.96 245.405 204.12C245.741 204.272 246.001 204.5 246.185 204.804C246.369 205.108 246.461 205.488 246.461 205.944V208.944C246.461 209.368 246.653 209.58 247.037 209.58C247.205 209.58 247.349 209.552 247.469 209.496L247.433 209.976C247.297 210.048 247.121 210.084 246.905 210.084C246.721 210.084 246.549 210.048 246.389 209.976C246.229 209.904 246.097 209.784 245.993 209.616C245.897 209.448 245.849 209.22 245.849 208.932V208.608L246.017 208.596C245.945 208.94 245.785 209.228 245.537 209.46C245.297 209.684 245.017 209.852 244.697 209.964C244.377 210.068 244.057 210.12 243.737 210.12C243.361 210.12 243.025 210.06 242.729 209.94C242.433 209.82 242.201 209.648 242.033 209.424C241.865 209.192 241.781 208.908 241.781 208.572C241.781 208.124 241.929 207.764 242.225 207.492C242.529 207.212 242.953 207.02 243.497 206.916L245.981 206.424V206.928L243.797 207.36C243.325 207.456 242.973 207.596 242.741 207.78C242.509 207.964 242.393 208.216 242.393 208.536C242.393 208.864 242.517 209.124 242.765 209.316C243.013 209.5 243.365 209.592 243.821 209.592C244.053 209.592 244.289 209.56 244.529 209.496C244.769 209.432 244.989 209.332 245.189 209.196C245.397 209.052 245.561 208.876 245.681 208.668C245.801 208.452 245.861 208.192 245.861 207.888V206.052ZM249.257 201.24V208.584C249.257 208.952 249.321 209.212 249.449 209.364C249.577 209.516 249.777 209.592 250.049 209.592C250.217 209.592 250.349 209.58 250.445 209.556C250.549 209.532 250.669 209.492 250.805 209.436L250.721 209.964C250.617 210.012 250.497 210.048 250.361 210.072C250.233 210.104 250.089 210.12 249.929 210.12C249.505 210.12 249.185 210 248.969 209.76C248.761 209.512 248.657 209.128 248.657 208.608V201.24H249.257ZM256.444 204L253.54 211.104C253.396 211.472 253.24 211.764 253.072 211.98C252.904 212.196 252.716 212.348 252.508 212.436C252.3 212.532 252.06 212.58 251.788 212.58C251.548 212.58 251.328 212.544 251.128 212.472C250.928 212.4 250.764 212.3 250.636 212.172L250.828 211.656C250.948 211.8 251.092 211.9 251.26 211.956C251.428 212.02 251.6 212.052 251.776 212.052C252.032 212.052 252.26 211.976 252.46 211.824C252.66 211.68 252.848 211.392 253.024 210.96L253.42 210L252.784 208.512L250.888 204H251.572L253.408 208.548L253.708 209.352L254.032 208.488L255.796 204H256.444ZM256.756 212.16L256.42 211.812C256.924 211.364 257.332 210.876 257.644 210.348C257.956 209.82 258.184 209.248 258.328 208.632C258.472 208.008 258.544 207.332 258.544 206.604C258.544 205.876 258.472 205.204 258.328 204.588C258.184 203.964 257.956 203.388 257.644 202.86C257.332 202.332 256.924 201.844 256.42 201.396L256.756 201.048C257.556 201.736 258.152 202.54 258.544 203.46C258.944 204.38 259.144 205.428 259.144 206.604C259.144 207.78 258.944 208.828 258.544 209.748C258.152 210.668 257.556 211.472 256.756 212.16Z" fill="#FFE8EB"/>
<circle cx="263" cy="37" r="6" fill="#FFE8EB"/>
<circle cx="119" cy="94" r="6" fill="#FFE8EB"/>
<circle cx="30" cy="170" r="6" fill="#FFE8EB"/>
<circle cx="179" cy="223" r="6" fill="#FFE8EB"/>
</svg>
